<svg id="Capa_1" enable-background="new 0 0 497 497" height="512" viewBox="0 0 497 497" width="512" xmlns="http://www.w3.org/2000/svg"><g><path d="m123.448 419.783h-52.558c-2.761 0-5-2.238-5-5v-28.813l62.558-20v48.813c0 2.761-2.238 5-5 5z" fill="#a8572c"/><path d="m426.11 419.783h-52.558c-2.761 0-5-2.238-5-5v-38.813l62.558 10v28.813c0 2.761-2.239 5-5 5z" fill="#a8572c"/><g><path d="m97.169 258.285c-4.143 0-7.5-3.358-7.5-7.5v-124.029c0-4.142 3.357-7.5 7.5-7.5s7.5 3.358 7.5 7.5v124.028c0 4.143-3.357 7.501-7.5 7.501z" fill="#aee4a4"/></g><g><path d="m248.5 258.285c-4.143 0-7.5-3.358-7.5-7.5v-124.029c0-4.142 3.357-7.5 7.5-7.5s7.5 3.358 7.5 7.5v124.028c0 4.143-3.357 7.501-7.5 7.501z" fill="#aee4a4"/></g><g><path d="m399.831 258.285c-4.143 0-7.5-3.358-7.5-7.5v-124.029c0-4.142 3.357-7.5 7.5-7.5s7.5 3.358 7.5 7.5v124.028c0 4.143-3.357 7.501-7.5 7.501z" fill="#aee4a4"/></g><path d="m126.235 167.918c-11.728 0-22.08 5.86-28.307 14.807-1.011 1.452-1.011 3.41 0 4.862 6.227 8.947 16.58 14.807 28.307 14.807s22.08-5.86 28.307-14.807c1.011-1.452 1.011-3.41 0-4.862-6.227-8.947-16.58-14.807-28.307-14.807z" fill="#8dd5a7"/><path d="m68.104 167.918c-11.728 0-22.08 5.86-28.307 14.807-1.011 1.452-1.011 3.41 0 4.862 6.227 8.947 16.58 14.807 28.307 14.807s22.08-5.86 28.307-14.807c1.011-1.452 1.011-3.41 0-4.862-6.227-8.947-16.58-14.807-28.307-14.807z" fill="#aee4a4"/><path d="m277.565 167.918c-11.728 0-22.08 5.86-28.307 14.807-1.011 1.452-1.011 3.41 0 4.862 6.227 8.947 16.58 14.807 28.307 14.807s22.08-5.86 28.307-14.807c1.011-1.452 1.011-3.41 0-4.862-6.226-8.947-16.579-14.807-28.307-14.807z" fill="#8dd5a7"/><path d="m219.435 167.918c-11.728 0-22.08 5.86-28.307 14.807-1.011 1.452-1.011 3.41 0 4.862 6.227 8.947 16.58 14.807 28.307 14.807s22.08-5.86 28.307-14.807c1.011-1.452 1.011-3.41 0-4.862-6.227-8.947-16.58-14.807-28.307-14.807z" fill="#aee4a4"/><path d="m428.896 167.918c-11.728 0-22.08 5.86-28.307 14.807-1.011 1.452-1.011 3.41 0 4.862 6.227 8.947 16.58 14.807 28.307 14.807s22.08-5.86 28.307-14.807c1.011-1.452 1.011-3.41 0-4.862-6.226-8.947-16.579-14.807-28.307-14.807z" fill="#8dd5a7"/><path d="m370.766 167.918c-11.728 0-22.08 5.86-28.307 14.807-1.011 1.452-1.011 3.41 0 4.862 6.227 8.947 16.58 14.807 28.307 14.807s22.08-5.86 28.307-14.807c1.011-1.452 1.011-3.41 0-4.862-6.227-8.947-16.58-14.807-28.307-14.807z" fill="#aee4a4"/><path d="m487 335.97c0 27.614-22.386 50-50 50h-387c-27.614 0-50-22.386-50-50v-48.742l10-7.5-10-7.5v-31.443c0-5.523 4.477-10 10-10h467c5.523 0 10 4.477 10 10z" fill="#b66233"/><path d="m487 230.785h-30c5.523 0 10 4.477 10 10v95.185c0 27.614-22.386 50-50 50h30c27.614 0 50-22.386 50-50v-48.742l-10-7.5 10-7.5v-31.442c0-5.524-4.477-10.001-10-10.001z" fill="#a8572c"/><path d="m0 287.227h467l16.257-6.872-16.257-8.128h-467z" fill="#aee4a4"/><path d="m467 272.227h30v15h-30z" fill="#8dd5a7"/><path d="m399.831 146.276c-3.655 0-7.182 1.448-10.501.423-14.496-4.478-25.029-17.985-25.029-33.952v-31.156c0-2.416 1.958-4.374 4.374-4.374h41.311 11c2.416 0 4.374 1.958 4.374 4.374v31.156c0 19.622-5.907 33.529-25.529 33.529z" fill="#f26c72"/><path d="m430.987 77.217h-21c2.416 0 4.374 1.958 4.374 4.374v31.156c0 15.967-10.533 29.472-25.03 33.951 3.319 1.025 6.845 1.579 10.5 1.579 19.623 0 35.53-15.907 35.53-35.529v-31.157c-.001-2.416-1.959-4.374-4.374-4.374z" fill="#e95059"/><path d="m248.5 146.276c-3.655 0-7.182 1.448-10.501.423-14.496-4.478-25.029-17.985-25.029-33.952v-31.156c0-2.416 1.958-4.374 4.374-4.374h52.311c2.416 0 4.374 1.958 4.374 4.374v31.156c.001 19.622-5.907 33.529-25.529 33.529z" fill="#f26c72"/><path d="m279.656 77.217h-21c2.416 0 4.374 1.958 4.374 4.374v31.156c0 15.967-10.533 29.472-25.03 33.951 3.319 1.025 6.845 1.579 10.5 1.579 19.622 0 35.53-15.907 35.53-35.529v-31.157c0-2.416-1.959-4.374-4.374-4.374z" fill="#e95059"/><path d="m97.169 146.276c-3.655 0-7.182 1.448-10.501.423-14.496-4.478-25.029-17.985-25.029-33.952v-31.156c0-2.416 1.958-4.374 4.374-4.374h52.311c2.416 0 4.374 1.958 4.374 4.374v31.156c.001 19.622-5.907 33.529-25.529 33.529z" fill="#f26c72"/><path d="m128.325 77.217h-21c2.416 0 4.374 1.958 4.374 4.374v31.156c0 15.967-10.533 29.472-25.03 33.951 3.319 1.025 6.845 1.579 10.5 1.579 19.623 0 35.529-15.907 35.529-35.529v-31.157c.001-2.416-1.958-4.374-4.373-4.374z" fill="#e95059"/></g></svg>